<svg id="flat" height="512" viewBox="0 0 512 512" width="512" xmlns="http://www.w3.org/2000/svg"><path d="m96 120h24v32h-24z" fill="#ffbfa1" transform="matrix(-1 0 0 -1 216 272)"/><path d="m128 112h-24l-8 8v8a16 16 0 0 0 16 16 16 16 0 0 0 16-16z" fill="#ffceb6"/><path d="m96 120v-16a16 16 0 0 1 16-16h12.6863a11.31369 11.31369 0 0 1 11.3137 11.3137 11.31372 11.31372 0 0 1 -3.31371 8l-4.68629 4.6863h-24z" fill="#c47220"/><rect fill="#db8638" height="400" rx="16" width="288" x="192" y="56"/><path d="m224 88h224v336h-224z" fill="#548aff"/><path d="m192 176v64l-40-40v72h-104v-60l-1.07007-.8a37.331 37.331 0 0 1 22.40015-67.2h77.41992a31.99526 31.99526 0 0 1 22.62 9.37z" fill="#ffb401"/><path d="m54.34667 204.69336a7.9998 7.9998 0 0 1 7.9998 7.9998v8.13371a7.9998 7.9998 0 0 1 -7.9998 7.9998 7.99979 7.99979 0 0 1 -7.99979-7.99979v-8.13371a7.9998 7.9998 0 0 1 7.9998-7.9998z" fill="#ffa100" transform="matrix(.6 -.8 .8 .6 -151.669 130.181)"/><path d="m78.84423 175.47354a8.00008 8.00008 0 0 1 8.00008 8.00008v12.00343a8.00009 8.00009 0 0 1 -8.00009 8.00009 8.00008 8.00008 0 0 1 -8.00008-8.00008v-12.00343a8.00009 8.00009 0 0 1 8.00009-8.00009z" fill="#ffa100" transform="matrix(.625 -.781 .781 .625 -118.365 132.679)"/><path d="m120 176 13.279 39.836-42.866.924 13.587-40.76z" fill="#ef5e3b"/><path d="m104 176h16l8-16-16-16-16 16z" fill="#e04f2b"/><path d="m64 224 25.77778-25.77778 22.22222 17.77778 64-56h24v24a16 16 0 0 1 -16 16h-8l-25.03964 30.04757a49.8934 49.8934 0 0 1 -38.32918 17.95243 49.89341 49.89341 0 0 1 -29.93605-9.97868z" fill="#ffceb6"/><path d="m48 464v24h64v-8l-24-24z" fill="#e0edff"/><path d="m112 464v24h64v-8l-24-24z" fill="#c5dafa"/><path d="m304 56 8.84459-17.68918a25.88851 25.88851 0 0 1 23.15541-14.31082 25.88851 25.88851 0 0 1 23.15539 14.31082l8.84461 17.68918z" fill="#ffb401"/><path d="m416 56-24 48h-112l-24-48z" fill="#ffc431"/><path d="m48 464v-192h104v184l-40 8-8-152-16 144z" fill="#718799"/><path d="m400 200a64 64 0 1 1 -64-64 63.74276 63.74276 0 0 1 64 64z" fill="#a6cfff"/><path d="m384 224v18.34a64.02065 64.02065 0 0 1 -104-11.33v-7.01a15.99548 15.99548 0 0 1 16-16h72a15.99548 15.99548 0 0 1 16 16z" fill="#02c26a"/><path d="m296 336h-40a7.99977 7.99977 0 0 1 -8-8v-40a7.99977 7.99977 0 0 1 8-8h16v16h-8v24h24v-32h16v40a7.99977 7.99977 0 0 1 -8 8z" fill="#4976f2"/><path d="m265.373 288h45.255v16h-45.255z" fill="#f5714f" transform="matrix(.707 -.707 .707 .707 -124.95 290.343)"/><g fill="#4976f2"><path d="m320 288h24v16h-24z"/><path d="m360 288h64v16h-64z"/><path d="m320 312h64v16h-64z"/><path d="m296 400h-40a7.99977 7.99977 0 0 1 -8-8v-40a7.99977 7.99977 0 0 1 8-8h16v16h-8v24h24v-32h16v40a7.99977 7.99977 0 0 1 -8 8z"/></g><path d="m265.373 352h45.255v16h-45.255z" fill="#f5714f" transform="matrix(.707 -.707 .707 .707 -170.205 309.088)"/><path d="m320 352h32v16h-32z" fill="#4976f2"/><path d="m368 352h56v16h-56z" fill="#4976f2"/><path d="m360 376h24v16h-24z" fill="#4976f2"/><path d="m320 376h24v16h-24z" fill="#4976f2"/><path d="m144 168a8 8 0 0 1 -11.2 1.6l-20.8-15.6-20.8 15.6a8 8 0 0 1 -9.6-12.79993l17.06992-12.80007h26.66016l17.06994 12.8a8.00547 8.00547 0 0 1 1.59998 11.2z" fill="#ffa100"/><path d="m344 192v36a12 12 0 1 1 -24 0v-36z" fill="#ffceb6"/><path d="m344 192v32a15.99555 15.99555 0 0 1 -16-16v-16z" fill="#ffbfa1"/><path d="m352 184h-24l-8 8v8a16 16 0 0 0 16 16 16 16 0 0 0 16-16z" fill="#ffceb6"/><path d="m320 192v-16a16 16 0 0 1 16-16h12.6863a11.31369 11.31369 0 0 1 11.3137 11.3137 11.31372 11.31372 0 0 1 -3.31371 8l-4.68629 4.6863h-24z" fill="#c47220"/></svg>