<svg id="Capa_1" enable-background="new 0 0 512 512" height="512" viewBox="0 0 512 512" width="512" xmlns="http://www.w3.org/2000/svg"><g><g><path d="m301 451v-90h-90v90h-60v30c4.311 0 222.699 0 210 0v-30z" fill="#54548c"/><path d="m301 361h-45v120c55.761 0 111.603 0 105 0v-30h-60z" fill="#443d66"/><g><path d="m512 391h-512v-360h512z" fill="#ff5959"/></g><path d="m256 31h256v360h-256z" fill="#e63a57"/><g id="statistics_2_"><g><path d="m181 316h-90v-105h90z" fill="#ffdf40"/></g><g><path d="m301 316h-90v-165h90z" fill="#ffdf40"/></g><g><path d="m421 316h-90v-225h90z" fill="#ffbe40"/></g></g><path d="m256 151h45v165h-45z" fill="#ffbe40"/></g><g><path d="m61 301h390v30h-390z" fill="#ecf2ff"/></g><path d="m256 301h195v30h-195z" fill="#d9e5ff"/></g></svg>